<svg xmlns="http://www.w3.org/2000/svg" width="1.5in" height="0.75in" viewBox="0 0 432 216">
  <!-- Dark navy background -->
  <rect x="0" y="0" width="432" height="216" rx="6" fill="#0D1B2A"/>
  <rect x="2" y="2" width="428" height="212" rx="5" fill="none" stroke="#00B4D8" stroke-width="1" opacity="0.4"/>

  <!-- Left divider -->
  <line x1="110" y1="14" x2="110" y2="202" stroke="#00B4D8" stroke-width="0.8" opacity="0.25"/>

  <!-- Mandala logo -->
  <g transform="translate(56, 70)">
    <polygon points="0,-30 26,-15 26,15 0,30 -26,15 -26,-15" fill="none" stroke="#00B4D8" stroke-width="1.2" opacity="0.25"/>
    <polygon points="0,-19.5 16.9,-9.75 16.9,9.75 0,19.5 -16.9,9.75 -16.9,-9.75" fill="none" stroke="#00B4D8" stroke-width="1.2" opacity="0.5"/>
    <polygon points="0,-10.5 9.1,-5.25 9.1,5.25 0,10.5 -9.1,5.25 -9.1,-5.25" fill="none" stroke="#00B4D8" stroke-width="1.5" opacity="0.8"/>
    <circle cx="0" cy="-30" r="2.2" fill="#00B4D8" opacity="0.6"/>
    <circle cx="26" cy="-15" r="2.2" fill="#00B4D8" opacity="0.5"/>
    <circle cx="26" cy="15" r="2.2" fill="#0077B6" opacity="0.5"/>
    <circle cx="0" cy="30" r="2.2" fill="#0077B6" opacity="0.6"/>
    <circle cx="-26" cy="15" r="2.2" fill="#0077B6" opacity="0.5"/>
    <circle cx="-26" cy="-15" r="2.2" fill="#00B4D8" opacity="0.5"/>
    <circle cx="0" cy="0" r="3.5" fill="#00B4D8"/>
    <circle cx="0" cy="0" r="1.8" fill="#0D1B2A"/>
    <polygon points="0,-26 6,-19 -6,-19" fill="none" stroke="#00B4D8" stroke-width="0.8" opacity="0.6"/>
    <polygon points="0,26 6,19 -6,19" fill="none" stroke="#0077B6" stroke-width="0.8" opacity="0.6"/>
  </g>

  <!-- Brand text -->
  <text x="56" y="124" text-anchor="middle" font-family="'Helvetica Neue', Arial, sans-serif" font-size="9" font-weight="700" fill="#FFFFFF" letter-spacing="1.8">OPTIMIZED</text>
  <text x="56" y="136" text-anchor="middle" font-family="'Helvetica Neue', Arial, sans-serif" font-size="6.5" font-weight="400" fill="#90CAF9" letter-spacing="2.2">PERFORMANCE</text>
  <text x="56" y="147" text-anchor="middle" font-family="'Helvetica Neue', Arial, sans-serif" font-size="6.5" font-weight="400" fill="#90CAF9" letter-spacing="2.2">PEPTIDES</text>

  <!-- Product name -->
  <text x="128" y="46" font-family="'Helvetica Neue', Arial, sans-serif" font-size="30" font-weight="800" fill="#FFFFFF" letter-spacing="1.5">GLP-3</text>

  <!-- Cyan accent line -->
  <line x1="128" y1="54" x2="300" y2="54" stroke="#00B4D8" stroke-width="1.5" opacity="0.6"/>

  <!-- Descriptor -->
  <text x="128" y="72" font-family="'Helvetica Neue', Arial, sans-serif" font-size="9" font-weight="400" fill="#90CAF9" letter-spacing="0.5">Triple Agonist Peptide</text>

  <!-- Dosage + format -->
  <text x="128" y="92" font-family="'Helvetica Neue', Arial, sans-serif" font-size="13" font-weight="700" fill="#00B4D8" letter-spacing="0.5">20 mg</text>
  <text x="178" y="92" font-family="'Helvetica Neue', Arial, sans-serif" font-size="9" font-weight="400" fill="#7BA3C4">Lyophilized Powder</text>

  <!-- Purity + storage -->
  <text x="128" y="109" font-family="'Helvetica Neue', Arial, sans-serif" font-size="9" font-weight="600" fill="#FFFFFF" opacity="0.85" letter-spacing="0.3">Purity per COA</text>
  <text x="240" y="109" font-family="'Helvetica Neue', Arial, sans-serif" font-size="8.5" font-weight="400" fill="#7BA3C4">Store at -20&#xB0;C</text>

  <!-- Divider -->
  <line x1="128" y1="119" x2="420" y2="119" stroke="#00B4D8" stroke-width="0.5" opacity="0.2"/>

  <!-- RUO header (high-contrast red) -->
  <text x="128" y="134" font-family="'Helvetica Neue', Arial, sans-serif" font-size="8.5" font-weight="700" fill="#FF4D6D" letter-spacing="0.8">FOR RESEARCH USE ONLY</text>

  <!-- RUO supporting disclaimer -->
  <text x="128" y="147" font-family="'Helvetica Neue', Arial, sans-serif" font-size="6.5" font-weight="500" fill="#FF8FA3" letter-spacing="0.2">Not for human consumption. Not a drug, food, or cosmetic.</text>

  <!-- Lot / MFG / EXP stamp area -->
  <text x="128" y="170" font-family="'Helvetica Neue', Arial, sans-serif" font-size="7.5" font-weight="400" fill="#7BA3C4" opacity="0.6">Lot: _______</text>
  <text x="220" y="170" font-family="'Helvetica Neue', Arial, sans-serif" font-size="7.5" font-weight="400" fill="#7BA3C4" opacity="0.6">MFG: _______</text>
  <text x="320" y="170" font-family="'Helvetica Neue', Arial, sans-serif" font-size="7.5" font-weight="400" fill="#7BA3C4" opacity="0.6">EXP: _______</text>

  <!-- Footer: website + SKU + vial -->
  <text x="128" y="190" font-family="'Helvetica Neue', Arial, sans-serif" font-size="7" font-weight="500" fill="#90CAF9" opacity="0.75" letter-spacing="0.3">optimizedperformancepeptides.com</text>
  <text x="420" y="190" text-anchor="end" font-family="'Helvetica Neue', Arial, sans-serif" font-size="7" font-weight="400" fill="#7BA3C4" opacity="0.55">OP-GLP3-20MG | 3 mL vial</text>
</svg>