<svg xmlns="http://www.w3.org/2000/svg" width="1.5in" height="0.5in" viewBox="0 0 432 144">
  <rect x="2" y="2" width="428" height="140" rx="6" ry="6" fill="none" stroke="#0D1B2A" stroke-width="2"/>
  <line x1="100" y1="12" x2="100" y2="132" stroke="#0D1B2A" stroke-width="1" opacity="0.4"/>
  <g transform="translate(52, 52)">
    <polygon points="0,-28 24.2,-14 24.2,14 0,28 -24.2,14 -24.2,-14" fill="none" stroke="#0D1B2A" stroke-width="1.5" opacity="0.3"/>
    <polygon points="0,-18 15.6,-9 15.6,9 0,18 -15.6,9 -15.6,-9" fill="none" stroke="#0D1B2A" stroke-width="1.5" opacity="0.6"/>
    <polygon points="0,-10 8.7,-5 8.7,5 0,10 -8.7,5 -8.7,-5" fill="none" stroke="#0D1B2A" stroke-width="1.5" opacity="0.85"/>
    <circle cx="0" cy="-28" r="2" fill="#0D1B2A"/>
    <circle cx="24.2" cy="-14" r="2" fill="#0D1B2A" opacity="0.85"/>
    <circle cx="24.2" cy="14" r="2" fill="#0D1B2A" opacity="0.85"/>
    <circle cx="0" cy="28" r="2" fill="#0D1B2A"/>
    <circle cx="-24.2" cy="14" r="2" fill="#0D1B2A" opacity="0.85"/>
    <circle cx="-24.2" cy="-14" r="2" fill="#0D1B2A" opacity="0.85"/>
    <circle cx="0" cy="0" r="3" fill="#0D1B2A"/>
    <circle cx="0" cy="0" r="1.5" fill="white"/>
    <polygon points="0,-25 6,-18 -6,-18" fill="none" stroke="#0D1B2A" stroke-width="1" opacity="0.7"/>
    <polygon points="0,25 6,18 -6,18" fill="none" stroke="#0D1B2A" stroke-width="1" opacity="0.7"/>
  </g>
  <text x="52" y="96" text-anchor="middle" font-family="'Helvetica Neue', Arial, sans-serif" font-size="8" font-weight="700" fill="#0D1B2A" letter-spacing="1.5">OPTIMIZED</text>
  <text x="52" y="106" text-anchor="middle" font-family="'Helvetica Neue', Arial, sans-serif" font-size="6" font-weight="400" fill="#0D1B2A" letter-spacing="2" opacity="0.7">PERFORMANCE</text>
  <text x="118" y="38" font-family="'Helvetica Neue', Arial, sans-serif" font-size="26" font-weight="800" fill="#0D1B2A" letter-spacing="1.5">HGH 191AA</text>
  <line x1="118" y1="46" x2="320" y2="46" stroke="#0D1B2A" stroke-width="0.75" opacity="0.35"/>
  <text x="118" y="62" font-family="'Helvetica Neue', Arial, sans-serif" font-size="9" font-weight="400" fill="#0D1B2A" opacity="0.65" letter-spacing="0.5">Somatropin 191AA</text>
  <text x="118" y="80" font-family="'Helvetica Neue', Arial, sans-serif" font-size="12" font-weight="700" fill="#0D1B2A" letter-spacing="0.5">10 IU</text>
  <text x="170" y="80" font-family="'Helvetica Neue', Arial, sans-serif" font-size="9" font-weight="400" fill="#0D1B2A" opacity="0.6">Lyophilized Powder</text>
  <text x="118" y="96" font-family="'Helvetica Neue', Arial, sans-serif" font-size="9" font-weight="600" fill="#0D1B2A" opacity="0.75" letter-spacing="0.3">Purity: &gt;99%</text>
  <text x="220" y="96" font-family="'Helvetica Neue', Arial, sans-serif" font-size="8" font-weight="400" fill="#0D1B2A" opacity="0.55">Store at -20&#xB0;C</text>
  <line x1="118" y1="106" x2="420" y2="106" stroke="#0D1B2A" stroke-width="0.5" opacity="0.25"/>
  <text x="118" y="120" font-family="'Helvetica Neue', Arial, sans-serif" font-size="7" font-weight="600" fill="#0D1B2A" opacity="0.6" letter-spacing="0.8">FOR RESEARCH USE ONLY</text>
  <text x="118" y="133" font-family="'Helvetica Neue', Arial, sans-serif" font-size="7" font-weight="400" fill="#0D1B2A" opacity="0.45">Lot: __________</text>
  <text x="420" y="133" text-anchor="end" font-family="'Helvetica Neue', Arial, sans-serif" font-size="6" font-weight="400" fill="#0D1B2A" opacity="0.4">OP-HGH-10IU | 2 mL vial</text>
</svg>