<svg xmlns="http://www.w3.org/2000/svg" width="1.5in" height="0.75in" viewBox="0 0 432 216">
  <rect x="2" y="2" width="428" height="212" rx="6" ry="6" fill="none" stroke="#0D1B2A" stroke-width="2"/>
  <line x1="100" y1="14" x2="100" y2="202" stroke="#0D1B2A" stroke-width="1" opacity="0.4"/>
  <g transform="translate(52, 70)">
    <polygon points="0,-30 26,-15 26,15 0,30 -26,15 -26,-15" fill="none" stroke="#0D1B2A" stroke-width="1.5" opacity="0.3"/>
    <polygon points="0,-19.5 16.9,-9.75 16.9,9.75 0,19.5 -16.9,9.75 -16.9,-9.75" fill="none" stroke="#0D1B2A" stroke-width="1.5" opacity="0.6"/>
    <polygon points="0,-10.5 9.1,-5.25 9.1,5.25 0,10.5 -9.1,5.25 -9.1,-5.25" fill="none" stroke="#0D1B2A" stroke-width="1.5" opacity="0.85"/>
    <circle cx="0" cy="-30" r="2" fill="#0D1B2A"/>
    <circle cx="26" cy="-15" r="2" fill="#0D1B2A" opacity="0.85"/>
    <circle cx="26" cy="15" r="2" fill="#0D1B2A" opacity="0.85"/>
    <circle cx="0" cy="30" r="2" fill="#0D1B2A"/>
    <circle cx="-26" cy="15" r="2" fill="#0D1B2A" opacity="0.85"/>
    <circle cx="-26" cy="-15" r="2" fill="#0D1B2A" opacity="0.85"/>
    <circle cx="0" cy="0" r="3" fill="#0D1B2A"/>
    <circle cx="0" cy="0" r="1.5" fill="white"/>
    <polygon points="0,-26 6,-19 -6,-19" fill="none" stroke="#0D1B2A" stroke-width="1" opacity="0.7"/>
    <polygon points="0,26 6,19 -6,19" fill="none" stroke="#0D1B2A" stroke-width="1" opacity="0.7"/>
  </g>
  <text x="52" y="124" text-anchor="middle" font-family="'Helvetica Neue', Arial, sans-serif" font-size="9" font-weight="700" fill="#0D1B2A" letter-spacing="1.5">OPTIMIZED</text>
  <text x="52" y="136" text-anchor="middle" font-family="'Helvetica Neue', Arial, sans-serif" font-size="6.5" font-weight="400" fill="#0D1B2A" letter-spacing="2" opacity="0.7">PERFORMANCE</text>
  <text x="52" y="147" text-anchor="middle" font-family="'Helvetica Neue', Arial, sans-serif" font-size="6.5" font-weight="400" fill="#0D1B2A" letter-spacing="2" opacity="0.7">PEPTIDES</text>

  <text x="118" y="46" font-family="'Helvetica Neue', Arial, sans-serif" font-size="26" font-weight="800" fill="#0D1B2A" letter-spacing="1.5">Ipamorelin</text>
  <line x1="118" y1="54" x2="320" y2="54" stroke="#0D1B2A" stroke-width="0.75" opacity="0.35"/>
  <text x="118" y="72" font-family="'Helvetica Neue', Arial, sans-serif" font-size="9" font-weight="400" fill="#0D1B2A" opacity="0.65" letter-spacing="0.5">GH Secretagogue</text>
  <text x="118" y="92" font-family="'Helvetica Neue', Arial, sans-serif" font-size="13" font-weight="700" fill="#0D1B2A" letter-spacing="0.5">5 mg</text>
  <text x="170" y="92" font-family="'Helvetica Neue', Arial, sans-serif" font-size="9" font-weight="400" fill="#0D1B2A" opacity="0.6">Lyophilized Powder</text>
  <text x="118" y="109" font-family="'Helvetica Neue', Arial, sans-serif" font-size="9" font-weight="600" fill="#0D1B2A" opacity="0.8" letter-spacing="0.3">Purity per COA</text>
  <text x="220" y="109" font-family="'Helvetica Neue', Arial, sans-serif" font-size="8.5" font-weight="400" fill="#0D1B2A" opacity="0.6">Store at -20&#xB0;C</text>
  <line x1="118" y1="119" x2="420" y2="119" stroke="#0D1B2A" stroke-width="0.5" opacity="0.25"/>

  <!-- RUO header (red on white) -->
  <text x="118" y="134" font-family="'Helvetica Neue', Arial, sans-serif" font-size="8.5" font-weight="700" fill="#C8102E" letter-spacing="0.8">FOR RESEARCH USE ONLY</text>
  <!-- RUO supporting -->
  <text x="118" y="147" font-family="'Helvetica Neue', Arial, sans-serif" font-size="6.5" font-weight="500" fill="#C8102E" opacity="0.85" letter-spacing="0.2">Not for human consumption. Not a drug, food, or cosmetic.</text>

  <!-- Lot / MFG / EXP -->
  <text x="118" y="170" font-family="'Helvetica Neue', Arial, sans-serif" font-size="7.5" font-weight="400" fill="#0D1B2A" opacity="0.55">Lot: _______</text>
  <text x="215" y="170" font-family="'Helvetica Neue', Arial, sans-serif" font-size="7.5" font-weight="400" fill="#0D1B2A" opacity="0.55">MFG: _______</text>
  <text x="315" y="170" font-family="'Helvetica Neue', Arial, sans-serif" font-size="7.5" font-weight="400" fill="#0D1B2A" opacity="0.55">EXP: _______</text>

  <!-- Footer -->
  <text x="118" y="190" font-family="'Helvetica Neue', Arial, sans-serif" font-size="7" font-weight="500" fill="#0D1B2A" opacity="0.7" letter-spacing="0.3">optimizedperformancepeptides.com</text>
  <text x="420" y="190" text-anchor="end" font-family="'Helvetica Neue', Arial, sans-serif" font-size="7" font-weight="400" fill="#0D1B2A" opacity="0.5">OP-IPA-5MG | 3 mL vial</text>
</svg>